<?xml version="1.0" standalone="no"?>
<!DOCTYPE svg PUBLIC "-//W3C//DTD SVG 20010904//EN"
 "http://www.w3.org/TR/2001/REC-SVG-20010904/DTD/svg10.dtd">
<svg version="1.0" xmlns="http://www.w3.org/2000/svg"
 width="512.000000pt" height="512.000000pt" viewBox="0 0 512.000000 512.000000"
 preserveAspectRatio="xMidYMid meet">
<metadata>
Created by potrace 1.14, written by Peter Selinger 2001-2017
</metadata>
<g transform="translate(0.000000,512.000000) scale(0.100000,-0.100000)"
fill="#000000" stroke="none">
<path d="M236 4803 c-92 -28 -155 -82 -202 -173 l-29 -55 -3 -1232 c-2 -1174
-2 -1233 15 -1234 21 -1 5059 0 5086 0 17 1 17 60 15 1234 l-3 1232 -24 50
c-30 62 -102 133 -167 166 l-49 24 -2295 2 c-2029 1 -2301 0 -2344 -14z m1594
-971 c48 -25 82 -93 74 -147 -3 -22 -9 -46 -14 -54 -4 -8 -79 -86 -166 -173
l-157 -159 157 -156 c87 -86 163 -171 171 -189 50 -120 -78 -244 -197 -191
-33 14 -454 431 -473 468 -21 40 -24 80 -8 119 17 42 434 465 478 486 42 19
94 17 135 -4z m1010 -4 c41 -28 70 -81 70 -128 0 -53 -419 -888 -462 -920 -93
-69 -222 -11 -236 106 -4 41 8 70 213 479 242 485 240 482 341 484 27 1 52 -7
74 -21z m588 8 c36 -19 452 -437 469 -470 19 -37 19 -96 -1 -133 -22 -42 -446
-460 -479 -473 -73 -27 -153 4 -186 73 -44 90 -31 114 161 306 l162 161 -158
158 c-87 87 -165 173 -172 192 -27 63 7 153 69 184 39 19 103 20 135 2z"/>
<path d="M2 1626 c4 -174 5 -183 31 -234 49 -93 133 -158 233 -180 22 -4 1063
-7 2314 -7 l2275 2 56 22 c59 23 125 79 164 140 34 54 45 126 45 290 l0 149
-2561 0 -2561 0 4 -182z"/>
<path d="M1781 900 c-5 -3 -30 -71 -57 -151 l-48 -146 -179 -2 c-189 -1 -210
-6 -254 -53 -54 -59 -45 -160 20 -212 l39 -31 1256 0 1257 0 33 23 c80 58 88
169 16 232 -43 37 -71 42 -265 44 l-154 1 -51 150 -51 150 -777 0 c-428 0
-781 -2 -785 -5z"/>
</g>
</svg>
